<svg width="130" height="130" viewBox="0 0 130 130" fill="none" xmlns="http://www.w3.org/2000/svg">
<g clip-path="url(#clip0_213_462)">
<path d="M111.928 71.8593V72.3818L112.357 72.6802L127.382 83.1325L127.441 83.1737L127.505 83.206C127.756 83.3315 127.962 83.612 128.021 84.1369C128.078 84.6578 127.962 85.2706 127.723 85.761L114.673 108.599L114.659 108.623L114.646 108.648C114.465 109.011 114.056 109.353 113.51 109.535C112.963 109.717 112.431 109.689 112.068 109.508L112.031 109.489L111.992 109.474L95.6608 102.941L95.1197 102.725L94.6647 103.089C91.4958 105.624 87.6758 107.538 83.7366 109.508L83.2741 109.739L83.1955 110.25L80.5824 127.235L80.5708 127.311V127.387C80.5708 127.564 80.3954 127.958 79.8276 128.384C79.2882 128.788 78.6775 129 78.3045 129H52.1739C50.6162 129 49.9075 128.002 49.9075 127.387V127.311L49.8959 127.235L47.2828 110.25L47.2042 109.739L46.7417 109.508C42.8025 107.538 38.9825 105.624 35.8137 103.089L35.3586 102.725L34.8176 102.941L18.5144 109.462C17.0549 109.94 16.1679 109.507 15.7322 109.124L2.75516 86.4139C2.49524 85.8862 2.40728 85.4419 2.45642 85.0488C2.50385 84.6694 2.69309 84.2234 3.19777 83.7074L16.8735 72.6365L17.4121 72.2005L17.193 71.5431C16.6003 69.765 16.591 67.9751 16.591 65.3266C16.591 64.1021 16.7435 63.0234 16.906 61.9674C16.9183 61.8872 16.9308 61.8068 16.9433 61.7262C17.0918 60.7681 17.2443 59.7842 17.2443 58.794V58.2987L16.8503 57.9985L3.1879 47.5891C2.66454 47.0509 2.27558 46.3889 2.0862 45.8207C1.98863 45.528 1.95848 45.3034 1.96339 45.1609C1.96459 45.1261 1.9675 45.1015 1.97028 45.0852L2.02097 45.0345L2.08741 44.9182L15.0846 22.1732C15.6489 21.6242 16.1451 21.284 16.6424 21.1183C17.1339 20.9544 17.7168 20.9311 18.5082 21.189L34.1513 27.707L34.6454 27.9128L35.0907 27.616C35.9276 27.058 36.7243 26.5086 37.495 25.9771C40.4286 23.9541 42.986 22.1905 45.9577 21.1999L46.5406 21.0056L46.6307 20.3978L49.2437 2.75961L49.2545 2.68674V2.61307C49.2545 2.43638 49.4299 2.04238 49.9977 1.61657C50.5371 1.21199 51.1478 1 51.5208 1H77.6515C78.022 1 78.589 1.20863 78.9857 1.60537C79.339 1.95858 79.5021 2.39141 79.3158 2.9501L79.2394 3.17945L79.2761 3.41839L81.8892 20.4033L81.9678 20.9144L82.4304 21.1457C86.3695 23.1153 90.1895 25.0297 93.3584 27.5648L93.8134 27.9288L94.3545 27.7124L110.658 21.1911C112.117 20.7135 113.004 21.1464 113.44 21.5297L126.417 44.2397C126.677 44.7672 126.765 45.2115 126.716 45.6046C126.668 45.984 126.479 46.4299 125.974 46.9459L112.299 58.0167L111.76 58.4528L111.979 59.1102C112.572 60.8883 112.581 62.6782 112.581 65.3266C112.581 66.5512 112.428 67.6299 112.266 68.6859C112.254 68.766 112.241 68.8464 112.229 68.9269C112.08 69.885 111.928 70.869 111.928 71.8593ZM1.97659 45.0589C1.97664 45.0589 1.97626 45.0602 1.97533 45.0624C1.97607 45.0599 1.97654 45.0588 1.97659 45.0589ZM40.7219 65.3266C40.7219 78.291 51.6218 89.1909 64.5862 89.1909C77.5505 89.1909 88.4504 78.291 88.4504 65.3266C88.4504 52.3623 77.5505 41.4623 64.5862 41.4623C51.6218 41.4623 40.7219 52.3623 40.7219 65.3266Z" fill="#78EEFC" fill-opacity="0.65" stroke="#78EEFC" stroke-width="2"/>
</g>
<defs>
<clipPath id="clip0_213_462">
<rect width="130" height="130" fill="white"/>
</clipPath>
</defs>
</svg>
