<svg width="113" height="114" viewBox="0 0 113 114" fill="none" xmlns="http://www.w3.org/2000/svg">
<g clip-path="url(#clip0_213_462)">
<path d="M97.1612 63.0868V63.6093L97.5901 63.9077L110.65 72.9931L110.71 73.0344L110.774 73.0667C110.94 73.1495 111.103 73.3445 111.15 73.7733C111.198 74.1983 111.103 74.7044 110.906 75.1095L99.5643 94.9575L99.5506 94.9816L99.5382 95.0064C99.3996 95.2836 99.0761 95.5617 98.6256 95.7118C98.1751 95.862 97.7496 95.8336 97.4724 95.6951L97.4353 95.6765L97.3967 95.6611L83.2007 89.9827L82.6597 89.7663L82.2047 90.1303C79.4629 92.3237 76.1555 93.9818 72.7289 95.6951L72.2664 95.9264L72.1877 96.4375L69.9164 111.201L69.9047 111.277V111.353C69.9047 111.444 69.7934 111.753 69.3111 112.115C68.857 112.455 68.3532 112.625 68.0656 112.625H45.352C44.0506 112.625 43.5128 111.798 43.5128 111.353V111.277L43.5012 111.201L41.2299 96.4375L41.1512 95.9264L40.6887 95.6951C37.2621 93.9818 33.9546 92.3237 31.2129 90.1303L30.7579 89.7663L30.2168 89.9827L16.0497 95.6496C14.849 96.0413 14.1303 95.6954 13.7784 95.3941L2.51134 75.6768C2.29428 75.2349 2.22736 74.8759 2.26587 74.5677C2.30271 74.2731 2.44981 73.9125 2.86876 73.4823L14.7501 63.8641L15.2888 63.428L15.0696 62.7706C14.5623 61.2488 14.5531 59.7152 14.5531 57.4084C14.5531 56.3547 14.6843 55.4255 14.8254 54.5083C14.8362 54.4383 14.8471 54.3679 14.858 54.2973C14.9868 53.4664 15.1209 52.6014 15.1209 51.73V51.2348L14.727 50.9346L2.85897 41.8923C2.42086 41.4396 2.09581 40.8843 1.93836 40.4119C1.85681 40.1673 1.83467 39.9881 1.83825 39.8842C1.83838 39.8805 1.83853 39.877 1.8387 39.8737L1.86246 39.85L1.9289 39.7337L13.2173 19.9791C13.695 19.5165 14.1058 19.2394 14.5083 19.1052C14.9041 18.9733 15.3804 18.9502 16.0434 19.1654L29.636 24.829L30.13 25.0348L30.5753 24.738C31.3077 24.2497 32.0034 23.77 32.6751 23.3069C35.2226 21.5503 37.4263 20.0308 39.9901 19.1762L40.573 18.9819L40.6631 18.3741L42.9344 3.04242L42.9452 2.96954V2.89587C42.9452 2.80462 43.0566 2.49604 43.5389 2.1343C43.9929 1.79379 44.4968 1.62451 44.7844 1.62451H67.4979C67.7831 1.62451 68.2433 1.79043 68.5653 2.11242C68.8437 2.39088 68.9641 2.71693 68.8206 3.14748L68.7442 3.37683L68.7809 3.61576L71.0523 18.3796L71.1309 18.8907L71.5934 19.122C75.0201 20.8353 78.3275 22.4934 81.0692 24.6868L81.5242 25.0508L82.0653 24.8344L96.2325 19.1675C97.4332 18.7758 98.1519 19.1217 98.5037 19.4229L109.771 39.1403C109.988 39.5821 110.055 39.9411 110.016 40.2492C109.979 40.5439 109.832 40.9045 109.413 41.3345L97.532 50.9528L96.9934 51.3888L97.2125 52.0463C97.7198 53.5681 97.729 55.1017 97.729 57.4084C97.729 58.4622 97.5979 59.3913 97.4567 60.3085C97.446 60.3786 97.4351 60.4489 97.4241 60.5195C97.2953 61.3504 97.1612 62.2154 97.1612 63.0868ZM1.84422 39.8277C1.84429 39.8278 1.84397 39.8294 1.84306 39.8324C1.8437 39.8291 1.84416 39.8276 1.84422 39.8277ZM35.2668 57.4084C35.2668 68.7497 44.8 78.2828 56.1412 78.2828C67.4824 78.2828 77.0155 68.7497 77.0155 57.4084C77.0155 46.0672 67.4824 36.5341 56.1412 36.5341C44.8 36.5341 35.2668 46.0672 35.2668 57.4084Z" fill="#78EEFC" fill-opacity="0.65" stroke="#78EEFC" stroke-width="2"/>
</g>
<defs>
<clipPath id="clip0_213_462">
<rect width="113" height="113" fill="white" transform="translate(0 0.624512)"/>
</clipPath>
</defs>
</svg>
