<svg width="60" height="60" viewBox="0 0 60 60" fill="none" xmlns="http://www.w3.org/2000/svg">
<g clip-path="url(#clip0_215_29)">
<path d="M30.0129 33.7246C26.6739 33.7246 23.41 32.7349 20.6337 30.8807C17.8575 29.0264 15.6937 26.3909 14.4159 23.3074C13.1382 20.2239 12.8039 16.8309 13.4553 13.5575C14.1066 10.284 15.7145 7.2772 18.0755 4.91719C20.4365 2.55718 23.4446 0.949991 26.7194 0.298865C29.9942 -0.35226 33.3886 -0.0180789 36.4734 1.25915C39.5582 2.53638 42.1948 4.69929 44.0498 7.47437C45.9048 10.2494 46.8949 13.5121 46.8949 16.8496V17.0496C46.8423 21.4904 45.0404 25.7314 41.8801 28.853C38.7198 31.9745 34.4558 33.7249 30.0129 33.7246ZM30.0129 4.99962C27.6272 4.99479 25.294 5.69909 23.3097 7.02301C21.3255 8.34693 19.7799 10.2307 18.8693 12.4348C17.9587 14.639 17.7243 17.064 18.1959 19.4016C18.6675 21.7392 19.8237 23.8839 21.5177 25.5631C23.2117 27.2422 25.3669 28.38 27.7093 28.8318C30.0518 29.2836 32.4757 29.029 34.6731 28.1004C36.8705 27.1718 38.742 25.6111 40.0498 23.6167C41.3576 21.6222 42.0427 19.2842 42.0179 16.8996C41.985 13.7364 40.7065 10.7136 38.4594 8.48613C36.2123 6.25867 33.1776 5.00602 30.0129 4.99962Z" fill="white"/>
<path d="M5.57732 60.0004C7.56036 55.1533 10.942 51.0061 15.2914 48.0869C19.6408 45.1678 24.7611 43.6089 30 43.6089C35.2389 43.6089 40.3592 45.1678 44.7086 48.0869C49.058 51.0061 52.4396 55.1533 54.4227 60.0004H60.025C57.9368 53.6928 53.9128 48.2036 48.5249 44.3129C43.1369 40.4223 36.6593 38.3281 30.0125 38.3281C23.3657 38.3281 16.8881 40.4223 11.5002 44.3129C6.11223 48.2036 2.08821 53.6928 0 60.0004H5.57732Z" fill="white"/>
</g>
<defs>
<clipPath id="clip0_215_29">
<rect width="60" height="60" fill="white"/>
</clipPath>
</defs>
</svg>
