<svg width="60" height="60" viewBox="0 0 60 60" fill="none" xmlns="http://www.w3.org/2000/svg">
<g clip-path="url(#clip0_215_19)">
<path d="M31.8758 38.8001H27.5008V35.7251C27.4667 33.3694 28.3653 31.0958 30.0008 29.4001L30.8008 28.6751C31.5044 28.0755 32.2477 27.5242 33.0258 27.0251C33.4431 26.811 33.8299 26.5419 34.1758 26.2251C35.3641 25.3154 36.1528 23.9799 36.3758 22.5001C36.4228 21.7174 36.3072 20.9334 36.0361 20.1976C35.765 19.4618 35.3444 18.7902 34.8008 18.2251C33.6338 17.3914 32.2654 16.8847 30.8369 16.7572C29.4085 16.6298 27.9719 16.8862 26.6758 17.5001C25.8992 17.907 25.2255 18.4855 24.7057 19.1915C24.1859 19.8976 23.8337 20.7127 23.6758 21.5751C23.6008 21.9884 23.6008 22.4118 23.6758 22.8251L19.2258 23.4251C19.1279 22.5946 19.1279 21.7555 19.2258 20.9251C19.4814 19.3414 20.1025 17.839 21.0398 16.5372C21.9771 15.2353 23.2049 14.1698 24.6258 13.4251C26.7607 12.375 29.1509 11.9559 31.5157 12.2172C33.8805 12.4785 36.1216 13.4092 37.9758 14.9001C39.0357 15.9292 39.8545 17.1803 40.3732 18.5636C40.8919 19.9468 41.0977 21.4278 40.9758 22.9001C40.6418 25.5107 39.3281 27.8967 37.3008 29.5751C36.743 30.064 36.1403 30.4993 35.5008 30.8751C34.9188 31.198 34.3739 31.5836 33.8758 32.0251L33.2758 32.6001C32.4683 33.4394 32.0199 34.5604 32.0258 35.7251L31.8758 38.8001Z" fill="white"/>
<path d="M31.8754 42.625H27.4004V47.45H31.8754V42.625Z" fill="white"/>
<path d="M30 60C24.0666 60 18.2664 58.2405 13.3329 54.9441C8.39943 51.6477 4.55426 46.9623 2.28363 41.4805C0.0129986 35.9987 -0.581102 29.9667 0.576455 24.1473C1.73401 18.3279 4.59123 12.9824 8.78681 8.78681C12.9824 4.59123 18.3279 1.73401 24.1473 0.576455C29.9667 -0.581102 35.9987 0.0129986 41.4805 2.28363C46.9623 4.55426 51.6477 8.39943 54.9441 13.3329C58.2405 18.2664 60 24.0666 60 30C60 37.9565 56.8393 45.5871 51.2132 51.2132C45.5871 56.8393 37.9565 60 30 60ZM30 4.47501C24.9516 4.47501 20.0166 5.97203 15.8191 8.77675C11.6215 11.5815 8.34992 15.5679 6.41799 20.232C4.48606 24.8961 3.98058 30.0283 4.96547 34.9797C5.95036 39.9311 8.38138 44.4792 11.9511 48.0489C15.5208 51.6187 20.069 54.0497 25.0203 55.0346C29.9717 56.0194 35.1039 55.514 39.768 53.582C44.4321 51.6501 48.4186 48.3785 51.2233 44.1809C54.028 39.9834 55.525 35.0484 55.525 30C55.525 23.2304 52.8358 16.738 48.0489 11.9511C43.2621 7.16425 36.7697 4.47501 30 4.47501Z" fill="white"/>
</g>
<defs>
<clipPath id="clip0_215_19">
<rect width="60" height="60" fill="white"/>
</clipPath>
</defs>
</svg>
