<svg width="25" height="25" viewBox="0 0 25 25" fill="none" xmlns="http://www.w3.org/2000/svg">
<g clip-path="url(#clip0_342_2)">
<path d="M24.6039 5.2434L22.656 1.91082C22.5526 1.66856 22.4194 1.4428 22.2602 1.23976L22.1352 1.01228C21.8526 0.683275 21.5102 0.422295 21.1299 0.246029C20.7497 0.0697626 20.3399 -0.0179091 19.9269 -0.011379H5.06227C4.65545 -0.0101621 4.25319 0.0823421 3.88048 0.260392C3.50776 0.438442 3.17253 0.698237 2.89561 1.02365V1.02365L2.77061 1.25113C2.61139 1.45418 2.47822 1.67994 2.37477 1.9222L0.395608 5.2434C0.0670763 5.80841 -0.0642457 6.48366 0.0256494 7.14569C0.115544 7.80773 0.420651 8.41232 0.885191 8.84895L1.92686 9.83848L2.08311 9.92947V21.7015C2.08029 22.5705 2.39161 23.4055 2.94944 24.0253C3.50727 24.645 4.26654 24.9994 5.06227 25.0114H19.9269C20.728 25.0114 21.4964 24.6639 22.0629 24.0453C22.6294 23.4267 22.9477 22.5877 22.9477 21.7129V9.92947L23.0727 9.83848L24.1144 8.84895C24.5789 8.41232 24.884 7.80773 24.9739 7.14569C25.0638 6.48366 24.9325 5.80841 24.6039 5.2434V5.2434ZM19.9269 22.8617H5.06227C4.78601 22.8617 4.52106 22.7419 4.32571 22.5285C4.13035 22.3152 4.02061 22.0259 4.02061 21.7243V10.3503L4.59352 10.0205C4.91506 9.83709 5.27244 9.74132 5.63519 9.74132C5.99795 9.74132 6.35532 9.83709 6.67686 10.0205L6.81227 10.0887C7.12161 10.2486 7.4596 10.3316 7.80186 10.3316C8.14412 10.3316 8.4821 10.2486 8.79144 10.0887L9.13519 9.90673C9.41951 9.77179 9.72622 9.70216 10.0362 9.70216C10.3463 9.70216 10.653 9.77179 10.9373 9.90673L11.7081 10.2479C12.2628 10.4921 12.8826 10.4921 13.4373 10.2479L14.2289 9.90673C14.528 9.7775 14.8488 9.7188 15.1701 9.73448C15.4915 9.75016 15.8062 9.83987 16.0935 9.99772H16.156C16.4788 10.1766 16.8357 10.2698 17.1977 10.2698C17.5597 10.2698 17.9166 10.1766 18.2394 9.99772C18.5472 9.83215 18.8858 9.74605 19.2289 9.74605C19.5721 9.74605 19.9107 9.83215 20.2185 9.99772L21.0414 10.4186V21.7925C21.0335 21.943 20.9983 22.0903 20.9378 22.2257C20.8773 22.3612 20.7927 22.4822 20.689 22.5817C20.5853 22.6812 20.4645 22.7572 20.3337 22.8052C20.2028 22.8533 20.0645 22.8725 19.9269 22.8617ZM22.8435 7.24522L21.8019 8.22338C21.6959 8.32682 21.5586 8.38357 21.4164 8.38261L20.1769 7.75705C19.869 7.59148 19.5304 7.50537 19.1873 7.50537C18.8441 7.50537 18.5055 7.59148 18.1977 7.75705V7.75705C17.8751 7.93678 17.5182 8.03049 17.156 8.03049C16.7939 8.03049 16.4369 7.93678 16.1144 7.75705L15.9998 7.6888C15.7117 7.53278 15.3966 7.44503 15.0753 7.4313C14.7539 7.41758 14.4336 7.4782 14.1352 7.60918L13.3852 7.9504C12.8295 8.18877 12.2117 8.18877 11.656 7.9504L10.8748 7.59781C10.5837 7.4682 10.2708 7.40727 9.95663 7.41903C9.64246 7.4308 9.33412 7.51498 9.05186 7.66605L8.77061 7.81392C8.45948 7.97404 8.11977 8.05707 7.77582 8.05707C7.43186 8.05707 7.09216 7.97404 6.78103 7.81392L6.62478 7.7343C6.31103 7.56311 5.9651 7.47399 5.61436 7.47399C5.26362 7.47399 4.91769 7.56311 4.60394 7.7343L3.56227 8.29162C3.41726 8.2912 3.27705 8.2348 3.16644 8.13239L2.12477 7.15423C2.04489 7.04835 1.99781 6.91754 1.99032 6.7806C1.98284 6.64367 2.01532 6.50767 2.08311 6.39217L4.37477 2.45677C4.56788 2.25354 4.82533 2.13947 5.09352 2.1383H19.9269C20.1987 2.13652 20.4603 2.25081 20.656 2.45677V2.45677L22.9164 6.39217C22.9993 6.52056 23.0374 6.67701 23.0241 6.83338C23.0107 6.98975 22.9467 7.13578 22.8435 7.24522V7.24522Z" fill="white"/>
<path d="M13.1777 12.0903H7.47982C6.97785 12.0933 6.49723 12.3124 6.14228 12.6999C5.78734 13.0875 5.58672 13.6123 5.58398 14.1604V18.6304C5.58672 19.1785 5.78734 19.7033 6.14228 20.0908C6.49723 20.4784 6.97785 20.6974 7.47982 20.7004H13.1777C13.6805 20.7004 14.1628 20.4823 14.5183 20.0941C14.8738 19.7059 15.0736 19.1794 15.0736 18.6304V14.1604C15.0736 13.6114 14.8738 13.0849 14.5183 12.6966C14.1628 12.3084 13.6805 12.0903 13.1777 12.0903V12.0903ZM13.1257 18.5735L7.5319 18.6304L7.47982 14.2173H13.1257V18.5735Z" fill="white"/>
</g>
<defs>
<clipPath id="clip0_342_2">
<rect width="25" height="25" fill="white"/>
</clipPath>
</defs>
</svg>
