<svg width="25" height="25" viewBox="0 0 25 25" fill="none" xmlns="http://www.w3.org/2000/svg">
<g clip-path="url(#clip0_342_18)">
<path d="M12.5049 14.0522C11.1137 14.0522 9.75367 13.6399 8.5969 12.8673C7.44014 12.0947 6.53855 10.9965 6.00615 9.71174C5.47375 8.42695 5.33445 7.0132 5.60587 5.64927C5.87728 4.28534 6.54722 3.03249 7.53097 2.04915C8.51472 1.06582 9.76809 0.396155 11.1326 0.124853C12.4971 -0.14645 13.9114 -0.00720736 15.1967 0.524971C16.4821 1.05715 17.5807 1.95836 18.3536 3.11465C19.1265 4.27093 19.5391 5.63035 19.5391 7.021V7.10433C19.5171 8.95466 18.7663 10.7217 17.4496 12.0224C16.1328 13.323 14.3561 14.0524 12.5049 14.0522V14.0522ZM12.5049 2.0835C11.5109 2.08149 10.5387 2.37495 9.71191 2.92658C8.88514 3.47821 8.24112 4.26311 7.86172 5.1815C7.48231 6.09989 7.38464 7.11031 7.58114 8.08432C7.77763 9.05833 8.2594 9.95195 8.96522 10.6516C9.67104 11.3512 10.569 11.8253 11.5451 12.0136C12.5211 12.2018 13.5311 12.0957 14.4466 11.7088C15.3622 11.3219 16.142 10.6716 16.6869 9.8406C17.2319 9.00959 17.5173 8.0354 17.507 7.04183V7.04183C17.4933 5.72384 16.9605 4.46432 16.0242 3.53621C15.088 2.60811 13.8235 2.08617 12.5049 2.0835V2.0835Z" fill="white"/>
<path d="M2.32389 24.9998C3.15015 22.9802 4.55916 21.2522 6.37142 20.0359C8.18367 18.8196 10.3171 18.17 12.5 18.17C14.6829 18.17 16.8163 18.8196 18.6286 20.0359C20.4408 21.2522 21.8499 22.9802 22.6761 24.9998H25.0104C24.1403 22.3717 22.4637 20.0845 20.2187 18.4634C17.9737 16.8423 15.2747 15.9697 12.5052 15.9697C9.73573 15.9697 7.0367 16.8423 4.79173 18.4634C2.54676 20.0845 0.870086 22.3717 0 24.9998H2.32389Z" fill="white"/>
</g>
<defs>
<clipPath id="clip0_342_18">
<rect width="25" height="25" fill="white"/>
</clipPath>
</defs>
</svg>
