<svg width="25" height="25" viewBox="0 0 25 25" fill="none" xmlns="http://www.w3.org/2000/svg">
<g clip-path="url(#clip0_342_14)">
<path d="M13.2819 16.1668H11.459V14.8855C11.4448 13.904 11.8192 12.9567 12.5007 12.2501L12.834 11.948C13.1271 11.6982 13.4369 11.4685 13.7611 11.2605C13.935 11.1713 14.0961 11.0592 14.2402 10.9272C14.7353 10.5482 15.064 9.99171 15.1569 9.37512C15.1765 9.04898 15.1283 8.72232 15.0154 8.41575C14.9024 8.10917 14.7272 7.82932 14.5007 7.59387C14.0144 7.24652 13.4442 7.03537 12.849 6.98226C12.2539 6.92915 11.6553 7.03601 11.1152 7.29178C10.7917 7.46135 10.5109 7.70236 10.2944 7.99654C10.0778 8.29073 9.93103 8.63037 9.86523 8.9897C9.83398 9.16191 9.83398 9.33833 9.86523 9.51053L8.01107 9.76053C7.97027 9.41451 7.97027 9.06489 8.01107 8.71887C8.11756 8.05899 8.37635 7.43301 8.76691 6.89057C9.15746 6.34813 9.66904 5.90416 10.2611 5.59387C11.1506 5.15632 12.1465 4.98172 13.1319 5.09059C14.1172 5.19945 15.051 5.58726 15.8236 6.20845C16.2652 6.63723 16.6064 7.15854 16.8225 7.7349C17.0386 8.31125 17.1244 8.92834 17.0736 9.54178C16.9344 10.6295 16.387 11.6237 15.5423 12.323C15.3099 12.5268 15.0588 12.7081 14.7923 12.8647C14.5498 12.9993 14.3228 13.1599 14.1152 13.3439L13.8652 13.5835C13.5288 13.9332 13.342 14.4003 13.3444 14.8855L13.2819 16.1668Z" fill="white"/>
<path d="M13.2806 17.7603H11.416V19.7707H13.2806V17.7603Z" fill="white"/>
<path d="M12.5 25C10.0277 25 7.61099 24.2669 5.55538 22.8934C3.49976 21.5199 1.89761 19.5676 0.951512 17.2835C0.00541608 14.9995 -0.242126 12.4861 0.24019 10.0614C0.722505 7.63661 1.91301 5.40933 3.66117 3.66117C5.40933 1.91301 7.63662 0.722505 10.0614 0.24019C12.4861 -0.242126 14.9995 0.00541608 17.2836 0.951511C19.5676 1.89761 21.5199 3.49976 22.8934 5.55538C24.2669 7.61099 25 10.0277 25 12.5C25 15.8152 23.683 18.9946 21.3388 21.3388C18.9946 23.683 15.8152 25 12.5 25ZM12.5 1.86459C10.3965 1.86459 8.34027 2.48835 6.59129 3.65698C4.8423 4.82561 3.47913 6.48664 2.67416 8.43001C1.86919 10.3734 1.65858 12.5118 2.06895 14.5749C2.47932 16.6379 3.49224 18.533 4.97963 20.0204C6.46702 21.5078 8.36207 22.5207 10.4251 22.9311C12.4882 23.3414 14.6266 23.1308 16.57 22.3258C18.5134 21.5209 20.1744 20.1577 21.343 18.4087C22.5117 16.6597 23.1354 14.6035 23.1354 12.5C23.1354 9.67932 22.0149 6.97416 20.0204 4.97963C18.0259 2.9851 15.3207 1.86459 12.5 1.86459V1.86459Z" fill="white"/>
</g>
<defs>
<clipPath id="clip0_342_14">
<rect width="25" height="25" fill="white"/>
</clipPath>
</defs>
</svg>
