<svg width="25" height="28" viewBox="0 0 25 28" fill="none" xmlns="http://www.w3.org/2000/svg">
<path d="M16.2208 11.7036H6.93184C6.21117 11.7036 5.62695 12.192 5.62695 12.7945V12.7956C5.62695 13.3981 6.21117 13.8865 6.93184 13.8865H16.2208C16.9414 13.8865 17.5256 13.3981 17.5256 12.7956V12.7945C17.5256 12.192 16.9414 11.7036 16.2208 11.7036Z" fill="white"/>
<path d="M14.1673 7.22559H6.93184C6.21117 7.22559 5.62695 7.71398 5.62695 8.31645V8.31758C5.62695 8.92005 6.21117 9.40845 6.93184 9.40845H14.1673C14.888 9.40845 15.4722 8.92005 15.4722 8.31758V8.31645C15.4722 7.71398 14.888 7.22559 14.1673 7.22559Z" fill="white"/>
<path d="M6.93184 22.8419H11.7744C12.1204 22.8419 12.4523 22.727 12.697 22.5224C12.9418 22.3178 13.0792 22.0403 13.0792 21.751C13.0792 21.4617 12.9418 21.1842 12.697 20.9797C12.4523 20.7751 12.1204 20.6602 11.7744 20.6602H6.93184C6.58576 20.6602 6.25386 20.7751 6.00914 20.9797C5.76443 21.1842 5.62695 21.4617 5.62695 21.751C5.62695 22.0403 5.76443 22.3178 6.00914 22.5224C6.25386 22.727 6.58576 22.8419 6.93184 22.8419Z" fill="white"/>
<path d="M6.93213 18.3634H18.0673C18.239 18.3638 18.4091 18.336 18.5679 18.2814C18.7267 18.2267 18.8711 18.1465 18.9927 18.0451C19.1143 17.9438 19.2108 17.8234 19.2767 17.6908C19.3425 17.5582 19.3764 17.4161 19.3764 17.2725C19.3764 17.129 19.3425 16.9868 19.2767 16.8542C19.2108 16.7216 19.1143 16.6012 18.9927 16.4999C18.8711 16.3985 18.7267 16.3183 18.5679 16.2637C18.4091 16.209 18.239 16.1812 18.0673 16.1816H6.9322C6.76048 16.1812 6.59034 16.209 6.43153 16.2637C6.27272 16.3183 6.12837 16.3985 6.00675 16.4999C5.88513 16.6012 5.78863 16.7216 5.72278 16.8542C5.65694 16.9868 5.62305 17.129 5.62305 17.2725C5.62305 17.4161 5.65694 17.5582 5.72278 17.6908C5.78863 17.8234 5.88513 17.9438 6.00675 18.0451C6.12837 18.1465 6.27272 18.2267 6.43153 18.2814C6.59034 18.336 6.76048 18.3638 6.9322 18.3634H6.93213Z" fill="white"/>
<path d="M8.34139 0H8.34004C7.61937 0 7.03516 0.488398 7.03516 1.09087V2.82405C7.03516 3.42652 7.61937 3.91491 8.34004 3.91491H8.34139C9.06206 3.91491 9.64628 3.42652 9.64628 2.82405V1.09087C9.64628 0.488398 9.06206 0 8.34139 0Z" fill="white"/>
<path d="M12.5015 0H12.5002C11.7795 0 11.1953 0.488398 11.1953 1.09087V2.82405C11.1953 3.42652 11.7795 3.91491 12.5002 3.91491H12.5015C13.2222 3.91491 13.8064 3.42652 13.8064 2.82405V1.09087C13.8064 0.488398 13.2222 0 12.5015 0Z" fill="white"/>
<path d="M16.6591 0H16.6584C15.9377 0 15.3535 0.488398 15.3535 1.09087V2.82405C15.3535 3.42652 15.9377 3.91491 16.6584 3.91491H16.6591C17.3798 3.91491 17.964 3.42652 17.964 2.82405V1.09087C17.964 0.488398 17.3798 0 16.6591 0Z" fill="white"/>
<path d="M21.8687 1.69434H21.1487C20.8025 1.69434 20.4704 1.80933 20.2256 2.01401C19.9807 2.2187 19.8432 2.49631 19.8432 2.78577C19.8432 3.07524 19.9807 3.35285 20.2256 3.55754C20.4704 3.76222 20.8025 3.87721 21.1487 3.87721H21.8694C22.0074 3.87754 22.1396 3.92352 22.2372 4.00511C22.3348 4.0867 22.3898 4.19727 22.3902 4.31265V25.3828C22.3898 25.4981 22.3348 25.6087 22.2372 25.6903C22.1396 25.7719 22.0074 25.8179 21.8694 25.8182H3.1313C2.99347 25.8178 2.86139 25.7719 2.76393 25.6904C2.66646 25.609 2.61153 25.4985 2.61112 25.3833V4.31208C2.61112 4.19674 2.66593 4.08614 2.76348 4.00458C2.86103 3.92303 2.99334 3.87722 3.1313 3.87721H3.85192C4.19817 3.87721 4.53025 3.76222 4.77509 3.55754C5.01993 3.35285 5.15748 3.07524 5.15748 2.78577C5.15748 2.49631 5.01993 2.2187 4.77509 2.01401C4.53025 1.80933 4.19817 1.69434 3.85192 1.69434H3.1313C2.30083 1.69434 1.50437 1.97014 0.91714 2.46106C0.329908 2.95198 3.7022e-06 3.61781 1.24496e-10 4.31208V25.3828C-3.66617e-06 25.7264 0.0809695 26.0668 0.238296 26.3843C0.395623 26.7018 0.626223 26.9903 0.916928 27.2334C1.20763 27.4764 1.55275 27.6692 1.93258 27.8007C2.3124 27.9322 2.7195 27.9999 3.13062 27.9999H21.8694C22.2805 27.9999 22.6876 27.9322 23.0674 27.8007C23.4472 27.6692 23.7923 27.4764 24.0831 27.2334C24.3738 26.9903 24.6044 26.7018 24.7617 26.3843C24.919 26.0668 25 25.7264 25 25.3828V4.31208C25 3.61781 24.6701 2.95198 24.0828 2.46106C23.4956 1.97014 22.6992 1.69434 21.8687 1.69434V1.69434Z" fill="white"/>
</svg>
