<svg width="17" height="17" viewBox="0 0 17 17" fill="none" xmlns="http://www.w3.org/2000/svg">
<g clip-path="url(#clip0_215_34)">
<path d="M8.5 0C4.95833 0 3.89583 0 3.68333 0C2.975 0.0708333 2.47917 0.141667 1.98333 0.425C1.62917 0.6375 1.275 0.85 0.991667 1.13333C0.495833 1.7 0.2125 2.40833 0.0708333 3.25833C0 3.6125 0 3.68333 0 5.7375C0 6.44583 0 7.29583 0 8.5C0 12.0417 0 13.1042 0 13.3167C0.0708333 14.025 0.141667 14.45 0.425 14.9458C0.85 15.8667 1.7 16.575 2.7625 16.8583C3.11667 16.9292 3.47083 17 3.96667 17C4.17917 17 6.30417 17 8.5 17C10.6958 17 12.8208 17 13.0333 17C13.6 17 13.9542 16.9292 14.3083 16.8583C15.3 16.575 16.15 15.9375 16.6458 14.9458C16.8583 14.45 17 14.025 17.0708 13.3167C17.0708 13.175 17.0708 10.8375 17.0708 8.5C17.0708 6.1625 17.0708 3.825 17.0708 3.68333C17 2.975 16.9292 2.55 16.6458 2.05417C16.4333 1.62917 16.2208 1.34583 15.9375 1.0625C15.3708 0.495833 14.6625 0.2125 13.8833 0.0708333C13.3875 0 13.3167 0 11.2625 0H8.5Z" fill="url(#paint0_radial_215_34)"/>
<path d="M8.5 0C4.95833 0 3.89583 0 3.68333 0C2.975 0.0708333 2.47917 0.141667 1.98333 0.425C1.62917 0.6375 1.275 0.85 0.991667 1.13333C0.495833 1.7 0.2125 2.40833 0.0708333 3.25833C0 3.6125 0 3.68333 0 5.7375C0 6.44583 0 7.29583 0 8.5C0 12.0417 0 13.1042 0 13.3167C0.0708333 14.025 0.141667 14.45 0.425 14.9458C0.85 15.8667 1.7 16.575 2.7625 16.8583C3.11667 16.9292 3.47083 17 3.96667 17C4.17917 17 6.30417 17 8.5 17C10.6958 17 12.8208 17 13.0333 17C13.6 17 13.9542 16.9292 14.3083 16.8583C15.3 16.575 16.15 15.9375 16.6458 14.9458C16.8583 14.45 17 14.025 17.0708 13.3167C17.0708 13.175 17.0708 10.8375 17.0708 8.5C17.0708 6.1625 17.0708 3.825 17.0708 3.68333C17 2.975 16.9292 2.55 16.6458 2.05417C16.4333 1.62917 16.2208 1.34583 15.9375 1.0625C15.3708 0.495833 14.6625 0.2125 13.8833 0.0708333C13.3875 0 13.3167 0 11.2625 0H8.5Z" fill="url(#paint1_radial_215_34)"/>
<path d="M8.49948 2.19629C6.79948 2.19629 6.58698 2.19629 5.87865 2.26712C5.24115 2.26712 4.74531 2.40879 4.32031 2.55046C3.89531 2.69212 3.54115 2.90462 3.18698 3.25879C2.83281 3.61296 2.62031 3.96712 2.47865 4.39212C2.40781 4.81712 2.26615 5.24212 2.26615 5.87962C2.26615 6.51712 2.19531 6.72962 2.19531 8.50046C2.19531 10.2713 2.19531 10.413 2.26615 11.1213C2.26615 11.7588 2.40781 12.2546 2.54948 12.6796C2.69115 13.1046 2.90365 13.4588 3.25781 13.813C3.61198 14.1671 3.96615 14.3796 4.39115 14.5213C4.81615 14.663 5.24115 14.8046 5.94948 14.8046C6.58698 14.8046 6.79948 14.8755 8.57031 14.8755C10.2703 14.8755 10.4828 14.8755 11.1911 14.8046C11.8286 14.8046 12.3245 14.663 12.7495 14.5213C13.1745 14.3796 13.5286 14.1671 13.8828 13.813C14.237 13.4588 14.4495 13.1046 14.5911 12.6796C14.7328 12.2546 14.8745 11.8296 14.8745 11.1213C14.8745 10.4838 14.9453 10.2713 14.9453 8.50046C14.9453 6.72962 14.9453 6.58796 14.8745 5.87962C14.8745 5.24212 14.7328 4.74629 14.5911 4.32129C14.4495 3.89629 14.237 3.54212 13.8828 3.18796C13.5286 2.83379 13.1745 2.62129 12.7495 2.47962C12.3245 2.33796 11.8995 2.19629 11.1911 2.19629C10.412 2.19629 10.1995 2.19629 8.49948 2.19629ZM7.93281 3.32962C8.07448 3.32962 8.28698 3.32962 8.49948 3.32962C10.1995 3.32962 10.3411 3.32962 11.0495 3.40046C11.687 3.40046 11.9703 3.54212 12.1828 3.61296C12.4661 3.75462 12.6786 3.89629 12.8911 4.10879C13.1036 4.32129 13.2453 4.53379 13.387 4.81712C13.4578 5.02962 13.5995 5.38379 13.5995 5.95046C13.5995 6.58796 13.6703 6.80046 13.6703 8.50046C13.6703 10.2005 13.6703 10.3421 13.5995 11.0505C13.5995 11.688 13.4578 11.9713 13.387 12.1838C13.2453 12.4671 13.1036 12.6796 12.8911 12.8921C12.6786 13.1046 12.4661 13.2463 12.1828 13.388C11.9703 13.4588 11.6161 13.6005 11.0495 13.6005C10.412 13.6005 10.1995 13.6713 8.49948 13.6713C6.79948 13.6713 6.65781 13.6713 5.94948 13.6005C5.31198 13.6005 5.02865 13.4588 4.81615 13.388C4.53281 13.2463 4.32031 13.1046 4.10781 12.8921C3.89531 12.6796 3.75365 12.4671 3.61198 12.1838C3.54115 11.9713 3.39948 11.6171 3.39948 11.0505C3.39948 10.413 3.32865 10.2005 3.32865 8.50046C3.32865 6.80046 3.32865 6.65879 3.39948 5.95046C3.39948 5.31296 3.54115 5.02962 3.61198 4.81712C3.75365 4.53379 3.89531 4.32129 4.10781 4.10879C4.32031 3.89629 4.53281 3.75462 4.81615 3.61296C5.02865 3.54212 5.38281 3.40046 5.94948 3.40046C6.51615 3.32962 6.79948 3.32962 7.93281 3.32962ZM11.8286 4.39212C11.4036 4.39212 11.0495 4.74629 11.0495 5.17129C11.0495 5.59629 11.4036 5.95046 11.8286 5.95046C12.2536 5.95046 12.6078 5.59629 12.6078 5.17129C12.6078 4.74629 12.2536 4.39212 11.8286 4.39212ZM8.49948 5.24212C6.72865 5.24212 5.31198 6.65879 5.31198 8.42962C5.31198 10.2005 6.72865 11.6171 8.49948 11.6171C10.2703 11.6171 11.687 10.2005 11.687 8.42962C11.687 6.65879 10.2703 5.24212 8.49948 5.24212ZM8.49948 6.37546C9.63281 6.37546 10.6245 7.29629 10.6245 8.50046C10.6245 9.63379 9.70365 10.6255 8.49948 10.6255C7.36615 10.6255 6.37448 9.70462 6.37448 8.50046C6.37448 7.36712 7.36615 6.37546 8.49948 6.37546Z" fill="white"/>
</g>
<defs>
<radialGradient id="paint0_radial_215_34" cx="0" cy="0" r="1" gradientUnits="userSpaceOnUse" gradientTransform="translate(4.51568 18.3553) rotate(-90) scale(16.8438 15.6701)">
<stop stop-color="#FFDD55"/>
<stop offset="0.1" stop-color="#FFDD55"/>
<stop offset="0.5" stop-color="#FF543E"/>
<stop offset="1" stop-color="#C837AB"/>
</radialGradient>
<radialGradient id="paint1_radial_215_34" cx="0" cy="0" r="1" gradientUnits="userSpaceOnUse" gradientTransform="translate(-2.83264 1.2058) rotate(78.6799) scale(7.529 31.0437)">
<stop stop-color="#3771C8"/>
<stop offset="0.128" stop-color="#3771C8"/>
<stop offset="1" stop-color="#6600FF" stop-opacity="0"/>
</radialGradient>
<clipPath id="clip0_215_34">
<rect width="17" height="17" fill="white"/>
</clipPath>
</defs>
</svg>
