<svg width="60" height="70" viewBox="0 0 60 70" fill="none" xmlns="http://www.w3.org/2000/svg">
<g clip-path="url(#clip0_215_3)">
<path d="M38.9329 29.2588H16.6395C14.9099 29.2588 13.5078 30.4798 13.5078 31.986V31.9888C13.5078 33.495 14.9099 34.716 16.6395 34.716H38.9329C40.6625 34.716 42.0646 33.495 42.0646 31.9888V31.986C42.0646 30.4798 40.6625 29.2588 38.9329 29.2588Z" fill="white"/>
<path d="M34.0047 18.0645H16.6395C14.9099 18.0645 13.5078 19.2854 13.5078 20.7916V20.7944C13.5078 22.3006 14.9099 23.5216 16.6395 23.5216H34.0047C35.7343 23.5216 37.1364 22.3006 37.1364 20.7944V20.7916C37.1364 19.2854 35.7343 18.0645 34.0047 18.0645Z" fill="white"/>
<path d="M16.6395 57.1047H28.2616C29.0922 57.1047 29.8887 56.8174 30.476 56.3059C31.0633 55.7945 31.3933 55.1008 31.3933 54.3776C31.3933 53.6543 31.0633 52.9606 30.476 52.4492C29.8887 51.9377 29.0922 51.6504 28.2616 51.6504H16.6395C15.8089 51.6504 15.0124 51.9377 14.4251 52.4492C13.8378 52.9606 13.5078 53.6543 13.5078 54.3776C13.5078 55.1008 13.8378 55.7945 14.4251 56.3059C15.0124 56.8174 15.8089 57.1047 16.6395 57.1047Z" fill="white"/>
<path d="M16.6379 45.9084H43.3622C43.7743 45.9096 44.1827 45.8399 44.5638 45.7034C44.9449 45.5669 45.2914 45.3662 45.5833 45.1128C45.8752 44.8595 46.1068 44.5584 46.2648 44.227C46.4228 43.8955 46.5042 43.5402 46.5042 43.1813C46.5042 42.8224 46.4228 42.467 46.2648 42.1356C46.1068 41.8041 45.8752 41.5031 45.5833 41.2497C45.2914 40.9964 44.9449 40.7957 44.5638 40.6591C44.1827 40.5226 43.7743 40.4529 43.3622 40.4541H16.6381C16.2259 40.4529 15.8176 40.5226 15.4365 40.6591C15.0553 40.7957 14.7089 40.9964 14.417 41.2497C14.1251 41.5031 13.8935 41.8041 13.7355 42.1356C13.5774 42.467 13.4961 42.8224 13.4961 43.1813C13.4961 43.5402 13.5774 43.8955 13.7355 44.227C13.8935 44.5584 14.1251 44.8595 14.417 45.1128C14.7089 45.3662 15.0553 45.5669 15.4365 45.7034C15.8176 45.8399 16.2259 45.9096 16.6381 45.9084H16.6379Z" fill="white"/>
<path d="M20.0197 0H20.0165C18.2869 0 16.8848 1.22099 16.8848 2.72717V7.06012C16.8848 8.56629 18.2869 9.78728 20.0165 9.78728H20.0197C21.7493 9.78728 23.1515 8.56629 23.1515 7.06012V2.72717C23.1515 1.22099 21.7493 0 20.0197 0Z" fill="white"/>
<path d="M30.0022 0H29.9989C28.2693 0 26.8672 1.22099 26.8672 2.72717V7.06012C26.8672 8.56629 28.2693 9.78728 29.9989 9.78728H30.0022C31.7318 9.78728 33.1339 8.56629 33.1339 7.06012V2.72717C33.1339 1.22099 31.7318 0 30.0022 0Z" fill="white"/>
<path d="M39.983 0H39.9813C38.2517 0 36.8496 1.22099 36.8496 2.72717V7.06012C36.8496 8.56629 38.2517 9.78728 39.9813 9.78728H39.983C41.7126 9.78728 43.1147 8.56629 43.1147 7.06012V2.72717C43.1147 1.22099 41.7126 0 39.983 0Z" fill="white"/>
<path d="M52.4848 4.23633H50.757C49.926 4.23633 49.129 4.5238 48.5414 5.03552C47.9538 5.54723 47.6236 6.24126 47.6236 6.96492C47.6236 7.68859 47.9538 8.38262 48.5414 8.89433C49.129 9.40604 49.926 9.69352 50.757 9.69352H52.4865C52.8177 9.69434 53.1351 9.8093 53.3694 10.0133C53.6036 10.2172 53.7356 10.4937 53.7366 10.7821V63.4574C53.7356 63.7458 53.6036 64.0222 53.3694 64.2262C53.1351 64.4302 52.8177 64.5451 52.4865 64.5459H7.51512C7.18432 64.5451 6.86734 64.4303 6.63343 64.2266C6.39951 64.0229 6.26767 63.7468 6.26669 63.4588V10.7807C6.2667 10.4923 6.39823 10.2158 6.63235 10.0119C6.86648 9.80807 7.18402 9.69353 7.51512 9.69352H9.2446C10.0756 9.69352 10.8726 9.40604 11.4602 8.89433C12.0478 8.38262 12.378 7.68859 12.378 6.96492C12.378 6.24126 12.0478 5.54723 11.4602 5.03552C10.8726 4.5238 10.0756 4.23633 9.2446 4.23633H7.51512C5.52199 4.23634 3.61049 4.92584 2.20113 6.15314C0.791779 7.38045 8.88529e-06 9.04502 2.98791e-10 10.7807V63.4574C-8.7988e-06 64.3166 0.194327 65.1674 0.571911 65.9612C0.949496 66.7551 1.50293 67.4763 2.20063 68.0839C2.89832 68.6915 3.7266 69.1734 4.63818 69.5022C5.54977 69.831 6.52679 70.0003 7.51348 70.0003H52.4865C53.4732 70.0003 54.4502 69.831 55.3618 69.5022C56.2734 69.1734 57.1016 68.6915 57.7993 68.0839C58.497 67.4763 59.0505 66.7551 59.428 65.9612C59.8056 65.1674 60 64.3166 60 63.4574V10.7807C60 9.04502 59.2082 7.38045 57.7988 6.15314C56.3895 4.92584 54.478 4.23634 52.4848 4.23633Z" fill="white"/>
</g>
<defs>
<clipPath id="clip0_215_3">
<rect width="60" height="70" fill="white"/>
</clipPath>
</defs>
</svg>
