<svg width="113" height="113" viewBox="0 0 113 113" fill="none" xmlns="http://www.w3.org/2000/svg">
<g clip-path="url(#clip0_213_418)">
<path d="M97.1612 62.4623V62.9848L97.5901 63.2832L110.65 72.3686L110.71 72.4099L110.774 72.4422C110.94 72.525 111.103 72.72 111.15 73.1488C111.198 73.5738 111.103 74.0799 110.906 74.485L99.5643 94.333L99.5506 94.3571L99.5382 94.3819C99.3996 94.659 99.0761 94.9371 98.6256 95.0873C98.1751 95.2375 97.7496 95.2091 97.4724 95.0706L97.4353 95.052L97.3967 95.0366L83.2007 89.3582L82.6597 89.1417L82.2047 89.5058C79.4629 91.6992 76.1555 93.3573 72.7289 95.0706L72.2664 95.3019L72.1877 95.813L69.9164 110.577L69.9047 110.652V110.729C69.9047 110.82 69.7934 111.129 69.3111 111.49C68.857 111.831 68.3532 112 68.0656 112H45.352C44.0506 112 43.5128 111.173 43.5128 110.729V110.652L43.5012 110.577L41.2299 95.813L41.1512 95.3019L40.6887 95.0706C37.2621 93.3573 33.9546 91.6992 31.2129 89.5058L30.7579 89.1417L30.2168 89.3582L16.0497 95.0251C14.849 95.4168 14.1303 95.0708 13.7784 94.7696L2.51134 75.0522C2.29428 74.6104 2.22736 74.2513 2.26587 73.9432C2.30271 73.6486 2.44981 73.288 2.86876 72.8578L14.7501 63.2396L15.2888 62.8035L15.0696 62.1461C14.5623 60.6243 14.5531 59.0907 14.5531 56.7839C14.5531 55.7302 14.6843 54.801 14.8254 53.8838C14.8362 53.8138 14.8471 53.7434 14.858 53.6728C14.9868 52.8419 15.1209 51.9769 15.1209 51.1055V50.6102L14.727 50.3101L2.85897 41.2678C2.42086 40.8151 2.09581 40.2598 1.93836 39.7874C1.85681 39.5428 1.83467 39.3635 1.83825 39.2597C1.83838 39.256 1.83853 39.2525 1.8387 39.2492L1.86246 39.2255L1.9289 39.1092L13.2173 19.3545C13.695 18.892 14.1058 18.6149 14.5083 18.4807C14.9041 18.3488 15.3804 18.3257 16.0434 18.5409L29.636 24.2045L30.13 24.4103L30.5753 24.1135C31.3077 23.6252 32.0034 23.1455 32.6751 22.6824C35.2226 20.9258 37.4263 19.4063 39.9901 18.5517L40.573 18.3574L40.6631 17.7496L42.9344 2.41791L42.9452 2.34503V2.27136C42.9452 2.1801 43.0566 1.87153 43.5389 1.50978C43.9929 1.16928 44.4968 1 44.7844 1H67.4979C67.7831 1 68.2433 1.16592 68.5653 1.4879C68.8437 1.76637 68.9641 2.09241 68.8206 2.52297L68.7442 2.75231L68.7809 2.99125L71.0523 17.7551L71.1309 18.2662L71.5934 18.4974C75.0201 20.2107 78.3275 21.8689 81.0692 24.0623L81.5242 24.4263L82.0653 24.2099L96.2325 18.543C97.4332 18.1513 98.1519 18.4972 98.5037 18.7984L109.771 38.5158C109.988 38.9576 110.055 39.3166 110.016 39.6247C109.979 39.9194 109.832 40.28 109.413 40.71L97.532 50.3283L96.9934 50.7643L97.2125 51.4217C97.7198 52.9436 97.729 54.4771 97.729 56.7839C97.729 57.8376 97.5979 58.7668 97.4567 59.684C97.446 59.7541 97.4351 59.8244 97.4241 59.895C97.2953 60.7259 97.1612 61.5909 97.1612 62.4623ZM1.84422 39.2032C1.84429 39.2032 1.84397 39.2049 1.84306 39.2078C1.8437 39.2046 1.84416 39.2031 1.84422 39.2032ZM35.2668 56.7839C35.2668 68.1251 44.8 77.6583 56.1412 77.6583C67.4824 77.6583 77.0155 68.1251 77.0155 56.7839C77.0155 45.4427 67.4824 35.9095 56.1412 35.9095C44.8 35.9095 35.2668 45.4427 35.2668 56.7839Z" fill="#CC4C3B" fill-opacity="0.65" stroke="#CC4C3B" stroke-width="2"/>
</g>
<defs>
<clipPath id="clip0_213_418">
<rect width="113" height="113" fill="white"/>
</clipPath>
</defs>
</svg>
