<svg width="332" height="332" viewBox="0 0 332 332" fill="none" xmlns="http://www.w3.org/2000/svg">
<g clip-path="url(#clip0_361_40)">
<g filter="url(#filter0_d_361_40)">
<path d="M8.01016 14.0527L9.66459 9.67381L14.0435 8.02006C28.1356 2.69822 42.9475 0 58.0682 0C91.2979 0 122.539 12.9405 146.037 36.4384L179.352 69.7531L253.81 73.3645L316.129 135.683L262.397 152.798L282.266 172.667L270.66 184.273L296.374 223.687L223.679 296.384L184.264 270.67L172.658 282.276L152.788 262.407L135.674 316.139L73.3539 253.82L69.7432 179.363L36.4285 146.048C1.91741 111.536 -9.23746 59.7249 8.01016 14.0527ZM277.406 126.268L244.813 93.6758L201.157 91.5585L245.902 136.303L277.406 126.268ZM220.916 269.838L269.828 220.926L255.686 199.248L199.239 255.695L220.916 269.838ZM93.6659 244.824L126.258 277.416L136.293 245.912L91.5486 201.167L93.6659 244.824ZM172.658 252.968L252.959 172.667L131.384 51.0914C111.8 31.5083 85.7633 20.7237 58.0682 20.7237C47.0452 20.7237 36.222 22.4417 25.8284 25.8362C13.7734 62.7796 23.4362 103.747 51.0822 131.394L172.658 252.968Z" fill="black"/>
</g>
<path d="M79.8942 48.8179C88.1975 48.8179 96.0034 52.0515 101.874 57.9225C113.995 70.0424 113.995 89.7637 101.874 101.884C96.0034 107.755 88.1968 110.989 79.8942 110.989C71.5916 110.989 63.785 107.755 57.914 101.884C45.7934 89.7644 45.7934 70.043 57.914 57.9225C63.7843 52.0515 71.5909 48.8179 79.8942 48.8179ZM72.567 87.2306C74.524 89.1876 77.1262 90.2659 79.8935 90.2659C82.6608 90.2659 85.263 89.1876 87.22 87.2313C91.2604 83.1908 91.2604 76.6173 87.22 72.5769C85.263 70.6199 82.6608 69.5422 79.8935 69.5422C77.1262 69.5422 74.524 70.6199 72.567 72.5769C68.5272 76.6166 68.5272 83.1908 72.567 87.2306Z" fill="black"/>
<path d="M331.99 259.469L308.504 235.982L293.85 250.636L317.337 274.122L331.99 259.469ZM259.464 332L274.117 317.347L250.631 293.86L235.977 308.514L259.464 332ZM314.708 299.027L280.084 264.404L265.431 279.057L300.054 313.681L314.708 299.027Z" fill="#843126"/>
</g>
<defs>
<filter id="filter0_d_361_40" x="0.0078125" y="0" width="336.121" height="324.139" filterUnits="userSpaceOnUse" color-interpolation-filters="sRGB">
<feFlood flood-opacity="0" result="BackgroundImageFix"/>
<feColorMatrix in="SourceAlpha" type="matrix" values="0 0 0 0 0 0 0 0 0 0 0 0 0 0 0 0 0 0 127 0" result="hardAlpha"/>
<feOffset dx="16" dy="4"/>
<feGaussianBlur stdDeviation="2"/>
<feComposite in2="hardAlpha" operator="out"/>
<feColorMatrix type="matrix" values="0 0 0 0 0 0 0 0 0 0 0 0 0 0 0 0 0 0 0.25 0"/>
<feBlend mode="normal" in2="BackgroundImageFix" result="effect1_dropShadow_361_40"/>
<feBlend mode="normal" in="SourceGraphic" in2="effect1_dropShadow_361_40" result="shape"/>
</filter>
<clipPath id="clip0_361_40">
<rect width="332" height="332" fill="white" transform="matrix(-1 0 0 1 332 0)"/>
</clipPath>
</defs>
</svg>
