<svg width="60" height="60" viewBox="0 0 60 60" fill="none" xmlns="http://www.w3.org/2000/svg">
<g clip-path="url(#clip0_213_425)">
<path d="M59.0502 12.584L54.3752 4.58578C54.127 4.00435 53.8074 3.46253 53.4252 2.97522L53.1252 2.42927C52.447 1.63967 51.6253 1.01331 50.7126 0.590274C49.8 0.167235 48.8166 -0.0431771 47.8252 -0.027505H12.1502C11.1739 -0.0245842 10.2084 0.197426 9.31393 0.624745C8.4194 1.05206 7.61486 1.67557 6.95024 2.45657L6.65024 3.00252C6.26812 3.48983 5.94852 4.03165 5.70024 4.61308L0.950239 12.584C0.161764 13.94 -0.153408 15.5606 0.0623397 17.1495C0.278088 18.7384 1.01034 20.1894 2.12524 21.2373L4.62524 23.6122L5.00024 23.8305V52.0835C4.99347 54.169 5.74065 56.1731 7.07944 57.6605C8.41823 59.1479 10.2405 59.9983 12.1502 60.0271H47.8252C49.7481 60.0271 51.5921 59.1931 52.9518 57.7085C54.3114 56.2239 55.0752 54.2103 55.0752 52.1108V23.8305L55.3752 23.6122L57.8752 21.2373C58.9901 20.1894 59.7224 18.7384 59.9381 17.1495C60.1539 15.5606 59.8387 13.94 59.0502 12.584ZM47.8252 54.8679H12.1502C11.4872 54.8679 10.8513 54.5803 10.3825 54.0683C9.91363 53.5564 9.65024 52.8621 9.65024 52.1381V24.8406L11.0252 24.0489C11.7969 23.6088 12.6546 23.379 13.5252 23.379C14.3959 23.379 15.2536 23.6088 16.0252 24.0489L16.3502 24.2127C17.0926 24.5965 17.9038 24.7956 18.7252 24.7956C19.5467 24.7956 20.3578 24.5965 21.1002 24.2127L21.9252 23.776C22.6076 23.4521 23.3437 23.285 24.0877 23.285C24.8318 23.285 25.5679 23.4521 26.2502 23.776L28.1002 24.5949C29.4315 25.1808 30.919 25.1808 32.2502 24.5949L34.1502 23.776C34.8681 23.4658 35.6379 23.3249 36.4091 23.3626C37.1804 23.4002 37.9356 23.6155 38.6252 23.9943H38.7752C39.55 24.4236 40.4065 24.6473 41.2752 24.6473C42.144 24.6473 43.0005 24.4236 43.7752 23.9943C44.5141 23.597 45.3266 23.3903 46.1502 23.3903C46.9738 23.3903 47.7864 23.597 48.5252 23.9943L50.5002 25.0043V52.3019C50.4812 52.663 50.3966 53.0165 50.2514 53.3416C50.1062 53.6668 49.9033 53.9571 49.6544 54.1959C49.4055 54.4347 49.1156 54.617 48.8016 54.7324C48.4876 54.8477 48.1557 54.8938 47.8252 54.8679ZM54.8252 17.3883L52.3252 19.7359C52.071 19.9842 51.7413 20.1204 51.4002 20.1181L48.4252 18.6167C47.6864 18.2194 46.8738 18.0127 46.0502 18.0127C45.2267 18.0127 44.4141 18.2194 43.6752 18.6167C42.9011 19.0481 42.0444 19.273 41.1752 19.273C40.3061 19.273 39.4494 19.0481 38.6752 18.6167L38.4002 18.4529C37.7088 18.0785 36.9527 17.8679 36.1815 17.8349C35.4102 17.802 34.6413 17.9475 33.9252 18.2618L32.1252 19.0808C30.7915 19.6529 29.309 19.6529 27.9752 19.0808L26.1002 18.2346C25.4016 17.9235 24.6507 17.7773 23.8967 17.8055C23.1427 17.8337 22.4027 18.0358 21.7252 18.3983L21.0502 18.7532C20.3035 19.1375 19.4882 19.3368 18.6627 19.3368C17.8372 19.3368 17.022 19.1375 16.2752 18.7532L15.9002 18.5621C15.1472 18.1513 14.317 17.9374 13.4752 17.9374C12.6335 17.9374 11.8032 18.1513 11.0502 18.5621L8.55024 19.8997C8.2022 19.8987 7.8657 19.7633 7.60024 19.5175L5.10024 17.1699C4.90851 16.9159 4.79553 16.6019 4.77756 16.2733C4.75959 15.9446 4.83755 15.6182 5.00024 15.341L10.5002 5.89606C10.9637 5.40831 11.5816 5.13453 12.2252 5.13173H47.8252C48.4776 5.12745 49.1056 5.40174 49.5752 5.89606L55.0002 15.341C55.199 15.6492 55.2906 16.0246 55.2585 16.3999C55.2265 16.7752 55.0728 17.1257 54.8252 17.3883Z" fill="white"/>
<path d="M31.6254 29.0171H17.9504C16.7457 29.0243 15.5922 29.55 14.7403 30.4801C13.8884 31.4103 13.407 32.6698 13.4004 33.9852V44.7132C13.407 46.0286 13.8884 47.2881 14.7403 48.2183C15.5922 49.1484 16.7457 49.6742 17.9504 49.6813H31.6254C32.8321 49.6813 33.9894 49.1579 34.8427 48.2262C35.696 47.2945 36.1754 46.0308 36.1754 44.7132V33.9852C36.1754 32.6676 35.696 31.4039 34.8427 30.4722C33.9894 29.5405 32.8321 29.0171 31.6254 29.0171ZM31.5004 44.5767L18.0754 44.7132L17.9504 34.1217H31.5004V44.5767Z" fill="white"/>
</g>
<defs>
<clipPath id="clip0_213_425">
<rect width="60" height="60" fill="white"/>
</clipPath>
</defs>
</svg>
