<svg width="17" height="17" viewBox="0 0 17 17" fill="none" xmlns="http://www.w3.org/2000/svg">
<path d="M8.5 17C13.1944 17 17 13.1944 17 8.5C17 3.80558 13.1944 0 8.5 0C3.80558 0 0 3.80558 0 8.5C0 13.1944 3.80558 17 8.5 17Z" fill="url(#paint0_linear_215_41)"/>
<path fill-rule="evenodd" clip-rule="evenodd" d="M3.8475 8.41053C6.32543 7.33094 7.97776 6.61921 8.8045 6.27533C11.165 5.2935 11.6555 5.12295 11.9752 5.11731C12.0927 5.11483 12.2079 5.14941 12.3046 5.21614C12.3724 5.275 12.4155 5.35716 12.4256 5.44635C12.4428 5.557 12.4476 5.66924 12.4398 5.78096C12.3119 7.12501 11.7584 10.3867 11.4768 11.892C11.3576 12.529 11.123 12.7426 10.8959 12.7635C10.4023 12.8089 10.0275 12.4373 9.54936 12.1239C8.80124 11.6335 8.37861 11.3282 7.65244 10.8496C6.81323 10.2966 7.35725 9.99266 7.83552 9.49592C7.96068 9.36591 10.1355 7.38771 10.1776 7.20826C10.1832 7.18186 10.1825 7.15453 10.1756 7.12844C10.1687 7.10236 10.1559 7.07823 10.1381 7.05798C10.1121 7.04153 10.0827 7.03142 10.0521 7.02846C10.0216 7.02549 9.99072 7.02976 9.9621 7.04092C9.88707 7.05795 8.69195 7.84788 6.37675 9.41071C6.11236 9.61727 5.79015 9.73628 5.45496 9.75119C5.00422 9.69674 4.56101 9.59186 4.13367 9.43852C3.60136 9.26548 3.17829 9.174 3.21513 8.88013C3.23434 8.72708 3.44513 8.57054 3.8475 8.41053Z" fill="white"/>
<defs>
<linearGradient id="paint0_linear_215_41" x1="8.5" y1="0" x2="8.5" y2="16.8725" gradientUnits="userSpaceOnUse">
<stop stop-color="#2AABEE"/>
<stop offset="1" stop-color="#229ED9"/>
</linearGradient>
</defs>
</svg>
