<svg width="17" height="17" viewBox="0 0 17 17" fill="none" xmlns="http://www.w3.org/2000/svg">
<path d="M0 8.16C0 4.31332 0 2.39001 1.19501 1.19501C2.39002 7.09295e-06 4.31332 0 8.16 0H8.84C12.6867 0 14.61 0 15.805 1.19501C17 2.39001 17 4.31332 17 8.16V8.84C17 12.6867 17 14.61 15.805 15.805C14.61 17 12.6867 17 8.84 17H8.16C4.31332 17 2.39001 17 1.19501 15.805C0 14.61 0 12.6867 0 8.84V8.16Z" fill="#2D79F5"/>
<path d="M9.04581 12.2471C5.17122 12.2471 2.96126 9.5909 2.86914 5.1709H4.80997C4.87372 8.41507 6.30456 9.78923 7.43789 10.0726V5.1709H9.26546V7.96881C10.3846 7.8484 11.5603 6.5734 11.957 5.1709H13.7846C13.635 5.89825 13.337 6.58693 12.9092 7.19389C12.4814 7.80084 11.933 8.31302 11.2983 8.6984C12.007 9.05026 12.633 9.54853 13.1349 10.1603C13.6368 10.772 14.0031 11.4833 14.2096 12.2471H12.1979C12.0125 11.5837 11.6353 10.9897 11.1136 10.5399C10.5919 10.09 9.94901 9.80421 9.2655 9.7184V12.2471H9.04581Z" fill="white"/>
</svg>
