<svg width="17" height="17" viewBox="0 0 17 17" fill="none" xmlns="http://www.w3.org/2000/svg">
<g clip-path="url(#clip0_215_44)">
<path d="M4.69497 14.3025L4.95198 14.4541C6.03605 15.0932 7.27279 15.4303 8.53269 15.4302H8.53544C10.095 15.43 11.6102 14.9139 12.843 13.9631C14.0758 13.0122 14.9562 11.6805 15.3458 10.1773C15.7355 8.67409 15.6123 7.08461 14.9956 5.6587C14.3789 4.2328 13.3036 3.05132 11.9389 2.29999C10.5742 1.54866 8.99734 1.27007 7.45624 1.50802C5.91513 1.74598 4.49715 2.48698 3.4252 3.61455C2.35324 4.74211 1.68809 6.19231 1.53429 7.73719C1.38049 9.28206 1.74677 10.834 2.57556 12.1491L2.74297 12.414L2.03211 14.9975L4.69497 14.3025ZM0 16.9986L1.20079 12.6339C0.270509 11.0271 -0.101231 9.15953 0.143208 7.32092C0.387647 5.48231 1.23461 3.77534 2.55278 2.46466C3.87095 1.15398 5.58668 0.312821 7.43396 0.0715933C9.28125 -0.169635 11.1569 0.202548 12.77 1.13044C14.3832 2.05833 15.6438 3.49008 16.3564 5.20372C17.0689 6.91736 17.1936 8.81714 16.7112 10.6085C16.2287 12.3999 15.166 13.9828 13.6879 15.1118C12.2098 16.2408 10.3987 16.8528 8.53564 16.8529H8.53202C7.11888 16.8529 5.72828 16.5003 4.48726 15.8275L0 16.9986Z" fill="white"/>
<path d="M0.363432 8.4271C0.361699 9.85408 0.737957 11.2563 1.45427 12.4923L0.294922 16.7059L4.62661 15.5753C5.82477 16.2245 7.16716 16.5647 8.53132 16.5649H8.53488C10.1509 16.5649 11.7307 16.0879 13.0745 15.1942C14.4182 14.3005 15.4656 13.0303 16.0842 11.5441C16.7028 10.0579 16.8648 8.4225 16.5498 6.84465C16.2347 5.2668 15.4568 3.81737 14.3143 2.67961C13.1718 1.54185 11.716 0.766851 10.1311 0.452607C8.54619 0.138363 6.90325 0.298982 5.41002 0.914157C3.91679 1.52933 2.64032 2.57144 1.74201 3.90871C0.843697 5.24599 0.363881 6.81839 0.363225 8.4271H0.363432Z" fill="url(#paint0_linear_215_44)"/>
<path d="M0.0710999 8.42488C0.0692976 9.90299 0.45899 11.3554 1.20089 12.6358L0 17.0003L4.48711 15.8291C5.72815 16.5019 7.11874 16.8544 8.53187 16.8545H8.53548C10.2095 16.8546 11.846 16.3605 13.2379 15.4348C14.6299 14.5091 15.7149 13.1933 16.3557 11.6539C16.9966 10.1144 17.1644 8.42031 16.8382 6.78585C16.5119 5.15139 15.7061 3.64994 14.5226 2.47134C13.3392 1.29273 11.8312 0.48989 10.1895 0.164328C8.54769 -0.161233 6.84581 0.00510143 5.29899 0.642302C3.75218 1.2795 2.4299 2.35895 1.49932 3.74418C0.568752 5.1294 0.0716809 6.75819 0.0709576 8.42461L0.0710999 8.42488ZM2.74307 12.4158L2.57557 12.1509C1.74644 10.8357 1.37989 9.28346 1.53356 7.73825C1.68722 6.19303 2.35239 4.74247 3.42448 3.61458C4.49657 2.48669 5.9148 1.74545 7.45621 1.50737C8.99763 1.26929 10.5748 1.54787 11.9398 2.29933C13.3049 3.05079 14.3803 4.23251 14.9971 5.65872C15.614 7.08493 15.7372 8.67475 15.3474 10.1783C14.9576 11.6818 14.077 13.0137 12.8439 13.9647C11.6108 14.9157 10.0952 15.4318 8.53531 15.4318H8.53256C7.27268 15.4319 6.03595 15.0948 4.95185 14.4558L4.69484 14.3042L2.032 14.9991L2.74307 12.4158Z" fill="url(#paint1_linear_215_44)"/>
<path fill-rule="evenodd" clip-rule="evenodd" d="M6.42019 4.90286C6.26173 4.55224 6.095 4.54523 5.9443 4.53906C5.82096 4.53384 5.67989 4.53418 5.53899 4.53418C5.43182 4.53697 5.32639 4.56181 5.22934 4.60714C5.13228 4.65246 5.0457 4.7173 4.97505 4.79756C4.73591 5.02298 4.54658 5.29553 4.41913 5.59782C4.29167 5.90012 4.22887 6.22553 4.23475 6.55332C4.3037 7.3473 4.60381 8.10401 5.09831 8.73074C5.97702 10.1082 7.22953 11.21 8.71094 11.9085C10.4975 12.6098 10.8611 12.4703 11.2489 12.4352C11.5442 12.3779 11.824 12.2591 12.07 12.0867C12.3161 11.9142 12.5227 11.6919 12.6764 11.4344C12.8147 11.12 12.8576 10.772 12.7998 10.4336C12.7469 10.3458 12.6059 10.2931 12.3944 10.1879C12.1828 10.0826 11.1431 9.57325 10.9492 9.50296C10.7553 9.43279 10.6143 9.39774 10.4733 9.60851C10.3323 9.81902 9.92723 10.2931 9.80379 10.4335C9.68046 10.5742 9.55703 10.5918 9.34554 10.4865C8.72203 10.239 8.14652 9.88546 7.64476 9.44161C7.18234 9.01617 6.78583 8.52485 6.46815 7.98366C6.34481 7.77314 6.45498 7.6591 6.56102 7.55413C6.65604 7.4598 6.77258 7.30834 6.87838 7.18545C6.96519 7.07899 7.03632 6.96076 7.08961 6.83431C7.11773 6.77624 7.13085 6.7121 7.12779 6.64771C7.12472 6.58331 7.10556 6.5207 7.07205 6.46553C7.01911 6.36023 6.6081 5.31912 6.42005 4.90281" fill="white"/>
</g>
<defs>
<linearGradient id="paint0_linear_215_44" x1="8.50562" y1="16.6953" x2="8.50562" y2="0.285068" gradientUnits="userSpaceOnUse">
<stop stop-color="#20B038"/>
<stop offset="1" stop-color="#60D66A"/>
</linearGradient>
<linearGradient id="paint1_linear_215_44" x1="8.5014" y1="16.9974" x2="8.5014" y2="-0.00109556" gradientUnits="userSpaceOnUse">
<stop stop-color="#F9F9F9"/>
<stop offset="1" stop-color="white"/>
</linearGradient>
<clipPath id="clip0_215_44">
<rect width="17" height="17" fill="white"/>
</clipPath>
</defs>
</svg>
