<svg width="113" height="114" viewBox="0 0 113 114" fill="none" xmlns="http://www.w3.org/2000/svg">
<g clip-path="url(#clip0_213_453)">
<path d="M97.1612 62.8076V63.3285L97.588 63.627L110.648 72.7627L110.707 72.8042L110.772 72.8367C110.938 72.9199 111.102 73.1174 111.15 73.5519C111.198 73.9817 111.102 74.4927 110.905 74.9013L99.5631 94.8593L99.5495 94.8833L99.5372 94.9081C99.3976 95.1888 99.0733 95.4682 98.624 95.6188C98.1745 95.7694 97.7505 95.7408 97.4744 95.6021L97.4372 95.5833L97.3985 95.5678L83.2025 89.858L82.659 89.6394L82.2026 90.0066C79.4608 92.2121 76.1535 93.8794 72.7269 95.6021L72.2657 95.834L72.1876 96.3443L69.9162 111.19L69.9047 111.265V111.341C69.9047 111.438 69.7904 111.75 69.3089 112.113C68.8547 112.455 68.3515 112.625 68.0656 112.625H45.352C44.0561 112.625 43.5128 111.796 43.5128 111.341V111.265L43.5013 111.19L41.23 96.3443L41.1519 95.834L40.6907 95.6021C37.2641 93.8794 33.9568 92.2121 31.215 90.0066L30.7586 89.6394L30.2151 89.858L16.0479 95.5562C14.8491 95.9494 14.1318 95.6022 13.78 95.2991L2.51241 75.4718C2.29484 75.0265 2.22709 74.6633 2.26596 74.3506C2.30314 74.0515 2.45148 73.6875 2.87076 73.2547L14.7522 63.5832L15.2872 63.1477L15.0701 62.4929C14.5623 60.9609 14.5531 59.417 14.5531 57.0978C14.5531 56.0374 14.6844 55.1024 14.8255 54.1801C14.8363 54.1096 14.8472 54.0389 14.8581 53.968C14.987 53.1323 15.1209 52.2633 15.1209 51.388V50.8944L14.7291 50.5942L2.86101 41.5019C2.42252 41.0463 2.09681 40.4871 1.93888 40.0107C1.85711 39.764 1.83462 39.5825 1.83826 39.4764C1.83843 39.4712 1.83866 39.4665 1.83891 39.4621L1.86401 39.4369L1.93007 39.3206L13.2188 19.456C13.697 18.9905 14.1078 18.7119 14.5099 18.5771C14.9045 18.4449 15.3795 18.4215 16.0417 18.6376L29.6342 24.3324L30.1305 24.5404L30.5774 24.2407C31.3099 23.7497 32.0056 23.2674 32.6774 22.8016C35.2249 21.0354 37.4283 19.5077 39.9917 18.6485L40.5737 18.4534L40.6632 17.8461L42.9345 2.42967L42.9452 2.35718V2.28391C42.9452 2.18705 43.0596 1.87516 43.541 1.51212C43.9952 1.16957 44.4984 1 44.7844 1H67.4979C67.7812 1 68.2408 1.16603 68.5633 1.49027C68.8424 1.7709 68.9652 2.10237 68.8201 2.54023L68.7444 2.76846L68.7808 3.00613L71.0521 17.8516L71.1302 18.3619L71.5915 18.5938C75.018 20.3165 78.3254 21.9838 81.0671 24.1893L81.5236 24.5565L82.0671 24.3379L96.2342 18.6397C97.433 18.2465 98.1503 18.5936 98.5021 18.8968L109.77 38.7242C109.987 39.1693 110.055 39.5324 110.016 39.8451C109.979 40.1442 109.831 40.5083 109.411 40.941L97.5299 50.6125L96.9949 51.048L97.212 51.7027C97.7199 53.2348 97.729 54.7786 97.729 57.0978C97.729 58.1583 97.5977 59.0933 97.4566 60.0156C97.4458 60.0861 97.4349 60.1568 97.424 60.2277C97.2952 61.0634 97.1612 61.9323 97.1612 62.8076ZM1.84458 39.4172C1.84465 39.4173 1.84432 39.4189 1.84338 39.422C1.84404 39.4187 1.84451 39.4172 1.84458 39.4172ZM35.2668 57.0978C35.2668 68.4935 44.7948 78.0821 56.1412 78.0821C67.4876 78.0821 77.0155 68.4935 77.0155 57.0978C77.0155 45.7022 67.4876 36.1136 56.1412 36.1136C44.7948 36.1136 35.2668 45.7022 35.2668 57.0978Z" fill="white" fill-opacity="0.65" stroke="white" stroke-width="2"/>
</g>
<defs>
<clipPath id="clip0_213_453">
<rect width="113" height="113.625" fill="white"/>
</clipPath>
</defs>
</svg>
